<?xml version="1.0" encoding="UTF-8"?>
<svg xmlns:cc="http://creativecommons.org/ns#" xmlns:dc="http://purl.org/dc/elements/1.1/" xmlns:inkscape="http://www.inkscape.org/namespaces/inkscape" xmlns:rdf="http://www.w3.org/1999/02/22-rdf-syntax-ns#" xmlns:sodipodi="http://sodipodi.sourceforge.net/DTD/sodipodi-0.dtd" xmlns:svg="http://www.w3.org/2000/svg" xmlns="http://www.w3.org/2000/svg" xmlns:xlink="http://www.w3.org/1999/xlink" version="1.1" id="svg4122" x="0px" y="0px" viewBox="0 0 1024 392" style="enable-background:new 0 0 1024 392;" xml:space="preserve">
<style type="text/css">
	.st0{fill:#FFFFFF;}
	.st1{fill:#155196;}
</style>

<g id="g4552" transform="translate(0.9043478,3.075362)">
	<g id="g3818" transform="matrix(8.925875,0,0,-8.925875,170.04081,79.074887)">
		<path id="path3820" inkscape:connector-curvature="0" class="st0" d="M0,0h3.6v-2.3h0.1C4.5-0.6,6.1,0.4,8,0.4    c0.5,0,0.9-0.1,1.3-0.2v-3.5C8.7-3.2,8.1-3.1,7.5-3.1C4.1-3.1,3.6-6,3.6-6.7v-7.8H0L0,0z"></path>
	</g>
	<g id="g3822" transform="matrix(8.925875,0,0,-8.925875,421.58893,79.074887)">
		<path id="path3824" inkscape:connector-curvature="0" class="st0" d="M0,0h4l3.9-10.2h0.1L11.8,0h3.7L9.8-14.5H5.9L0,0z"></path>
	</g>
	<g id="g3826" transform="matrix(8.925875,0,0,-8.925875,652.32726,208.61343)">
		<path id="path3828" inkscape:connector-curvature="0" class="st0" d="M0,0h3.3v8.3c0,2.1,0,6.5-6.2,6.5c-2.3,0-4.6-0.7-6.2-2.3    l1.9-1.9c1,0.9,2.4,1.5,3.9,1.5c1.9,0,3.3-0.9,3.3-2.7V9h-0.9C-4.5,9-10,8.7-10,4c0-2.9,2.6-4.4,5.3-4.4c1.9,0,3.6,0.7,4.7,2.4    L0,2V0z M-0.2,5.7c0-2-1.2-3.3-3.7-3.3c-1.2,0-2.5,0.6-2.5,1.9C-6.4,6.4-3,6.5-1,6.5h0.8L-0.2,5.7"></path>
	</g>
	<g id="g3830" transform="matrix(8.925875,0,0,-8.925875,808.59881,208.61343)">
		<path id="path3832" inkscape:connector-curvature="0" class="st0" d="M0,0h3.4v22.9h-3.6V12.7h-0.1c-0.8,0.9-2.2,2.2-4.9,2.2    c-4.1,0-7-3.3-7-7.6c0-4.3,2.7-7.6,7.2-7.6c2,0,3.9,0.8,5,2.5l0.1,0V0z M-8.6,7.3c0,2.3,1.6,4.4,4.3,4.4c2.7,0,4.3-2.1,4.3-4.4    s-1.6-4.4-4.3-4.4C-7,2.9-8.6,5-8.6,7.3"></path>
	</g>
	<g id="g3834" transform="matrix(8.925875,0,0,-8.925875,880.89571,15.627982)">
		<path id="path3836" inkscape:connector-curvature="0" class="st0" d="M0,0c1.3,0,2.4-0.9,2.4-2.2c0-1.2-1-2.2-2.4-2.2    c-1.3,0-2.3,1-2.3,2.2C-2.3-1-1.3,0,0,0 M-1.8-7.1h3.6v-14.5h-3.6C-1.8-21.6-1.8-7.1-1.8-7.1z"></path>
	</g>
	<g id="g3838" transform="matrix(8.925875,0,0,-8.925875,992.39953,114.96226)">
		<path id="path3840" inkscape:connector-curvature="0" class="st0" d="M0,0c-0.7,1-1.6,1.5-2.8,1.5C-3.8,1.5-5,1-5-0.1    c0-2.6,7.8-0.5,7.8-6.1c0-3.4-3.3-4.7-6.3-4.7c-2.2,0-4.2,0.6-5.7,2.2l2.4,2.3c0.9-1,1.9-1.8,3.4-1.8c1.1,0,2.4,0.5,2.4,1.7    c0,3-7.8,0.6-7.8,6.2c0,3.2,2.9,4.7,5.8,4.7c1.9,0,4-0.6,5.2-2.2L0,0z"></path>
	</g>
	<g id="g3842" transform="matrix(8.925875,0,0,-8.925875,407.81809,67.173125)">
		<path id="path3844" inkscape:connector-curvature="0" class="st1" d="M0,0c0.2-0.6-0.4-1-0.8-1.2c-1.8,0.8-3.6,1.4-5.7,1.4    c-3.3,0-6.7-2.3-7.8-5.6c-0.8-2.3-0.7-5.4,0.8-7.4c1.9-2.6,5.1-3.8,8.3-3c2.6,0.7,4.5,3.4,4.7,6c0.3,2.4-0.8,4.5-2.8,5.7    c-1.4,0.7-3.4,1.1-5,0.5c-1.8-0.9-3.1-2.9-3.1-5c0.1-1.3,0.5-2.6,1.7-3.3c1.1-0.9,2.5-1,3.9-0.6c1.4,0.8,2.1,2.3,1.9,3.8    c-0.1,0.8-1,1.4-1.7,1.7c-0.6,0.1-1.1,0.2-1.7-0.1c-0.4-0.5-0.9-1-0.8-1.8c0.9-1.4,1.8,1.6,2.8-0.2c0.1-0.8-0.4-1.7-1.2-2    c-0.8-0.3-1.6-0.2-2.3,0.2C-9.5-10.2-10-9.4-10-8.4c0,1.5,1.1,3,2.4,3.6C-6.4-4.5-5-4.8-4-5.4c1.1-0.7,1.8-1.8,2.1-3    c0.2-2.2-0.7-4.1-2.4-5.4c-1.2-0.8-2.8-1.1-4.2-0.7c-2.1,0.4-4.2,2.2-4.7,4.2c-0.5,2.3,0.1,4.7,1.4,6.5c1.6,1.9,4,2.9,6.6,2.4    c2.4-0.4,4.7-1.8,5.9-4.2c1.5-2.9,0.9-6.7-1-9.2c-1.9-2.4-4.4-3.3-7.3-3.3c-3.1,0.4-6.1,1.7-7.8,4.6c-1.9,2.5-1.7,6.6-0.5,9.4    c1.5,3.5,5.2,6,8.9,6.3C-4.4,2.2-1.7,1.9,0,0"></path>
	</g>
	<g id="g3846" transform="matrix(8.925875,0,0,-8.925875,75.341744,182.72036)">
		<path id="path3848" inkscape:connector-curvature="0" class="st0" d="M0,0c-2.7,0-4.3,2.1-4.3,4.4S-2.7,8.7,0,8.7    c2.7,0,4.3-2.1,4.3-4.4S2.7,0,0,0 M0.7,12c-2,0-3.9-0.8-5-2.5h-0.1v2.2h-3.4V-8.6h3.6v7.5h0.1C-3.3-2-1.8-3.3,0.9-3.3    c4.1,0,7,3.3,7,7.6C7.9,8.6,5.2,12,0.7,12"></path>
	</g>
</g>
<g>
	<path class="st1" d="M514.1,266.5v71.6h-12.2v-30.7h-34v30.7h-12.2v-71.6h12.2v29.6h34v-29.6H514.1z"></path>
	<path class="st1" d="M526.5,310.8c0-16.4,11.3-27.9,26.7-27.9c15.6,0,26.8,11.6,26.8,27.9c0,16.4-11.2,28-26.8,28   C537.8,338.8,526.5,327.1,526.5,310.8z M568.2,310.8c0-10.4-6.4-17.1-15-17.1c-8.5,0-14.9,6.6-14.9,17.1s6.4,17.1,14.9,17.1   C561.8,327.9,568.2,321.2,568.2,310.8z"></path>
	<path class="st1" d="M587.2,310.8c0-16.4,11.3-27.9,27.2-27.9c9.8,0,17.6,4.4,21.4,12.7l-9,5.7c-3-5.2-7.5-7.6-12.5-7.6   c-8.7,0-15.2,6.5-15.2,17.1c0,10.6,6.6,17.1,15.2,17.1c5,0,9.5-2.4,12.5-7.6l9,5.7c-3.9,8.2-11.7,12.8-21.4,12.8   C598.5,338.8,587.2,327.1,587.2,310.8z"></path>
	<path class="st1" d="M694.9,306.8v31.3h-11.8v-29.7c0-9.7-4.4-14.4-11.9-14.4c-8.4,0-14,5.5-14,16.5v27.6h-11.8v-75.9h11.8v27.6   c3.9-4.5,9.8-7,16.7-7C686,282.9,694.9,290.3,694.9,306.8z"></path>
	<path class="st1" d="M704.2,332.7l4.5-9.7c4.4,3.2,11.2,5.4,17.5,5.4c7.4,0,10.5-2.2,10.5-6c0-10.4-31-0.6-31-22.4   c0-10.3,8.6-17.1,22.1-17.1c6.7,0,14.3,1.7,18.8,4.7l-4.5,9.7c-4.8-3.1-9.6-4.1-14.4-4.1c-7.1,0-10.5,2.6-10.5,6.1   c0,11,31,1.2,31,22.6c0,10.2-8.7,16.9-22.8,16.9C717,338.8,708.7,336.1,704.2,332.7z"></path>
	<path class="st1" d="M754.2,310.8c0-16.4,11.3-27.9,27.2-27.9c9.8,0,17.6,4.4,21.4,12.7l-9,5.7c-3-5.2-7.5-7.6-12.5-7.6   c-8.7,0-15.2,6.5-15.2,17.1c0,10.6,6.6,17.1,15.2,17.1c5,0,9.5-2.4,12.5-7.6l9,5.7c-3.9,8.2-11.7,12.8-21.4,12.8   C765.5,338.8,754.2,327.1,754.2,310.8z"></path>
	<path class="st1" d="M862,306.8v31.3h-11.8v-29.7c0-9.7-4.4-14.4-11.9-14.4c-8.4,0-14,5.5-14,16.5v27.6h-11.8v-75.9h11.8v27.6   c3.9-4.5,9.8-7,16.7-7C853,282.9,862,290.3,862,306.8z"></path>
	<path class="st1" d="M925.5,283.5v54.6h-11.2v-7c-3.8,5-9.7,7.7-16.2,7.7c-12.9,0-21.6-7.7-21.6-24.1v-31.2h11.8v29.5   c0,9.9,4.3,14.6,11.8,14.6c8.2,0,13.7-5.5,13.7-16.5v-27.6H925.5z"></path>
	<path class="st1" d="M941,262.2h11.8v75.9H941V262.2z"></path>
	<path class="st1" d="M1015.2,314.9h-39.4c1.4,8,7.5,13.1,16.3,13.1c5.6,0,10.1-1.9,13.6-5.9l6.3,7.9c-4.5,5.8-11.6,8.9-20.2,8.9   c-16.8,0-27.7-11.8-27.7-28s11-27.9,26-27.9c14.7,0,25.4,11.1,25.4,28.2C1015.4,312.1,1015.3,313.6,1015.2,314.9z M975.7,306.4   h28.5c-0.9-7.9-6.5-13.3-14.2-13.3C982.4,293.1,976.8,298.4,975.7,306.4z"></path>
</g>
</svg>

